P2
2 2
250
0 10
10 20
